<svg xmlns="http://www.w3.org/2000/svg" version="1.1" xmlns:xlink="http://www.w3.org/1999/xlink" xmlns:svgjs="http://svgjs.dev/svgjs" width="1500" height="1500" viewBox="0 0 1500 1500"><rect width="1500" height="1500" fill="#d2d6dc"></rect><g transform="matrix(0.6666666666666666,0,0,0.6666666666666666,249.39393939393938,438.58569500674764)"><svg viewBox="0 0 396 247" data-background-color="#d2d6dc" preserveAspectRatio="xMidYMid meet" height="935" width="1500" xmlns="http://www.w3.org/2000/svg" xmlns:xlink="http://www.w3.org/1999/xlink"><g id="tight-bounds" transform="matrix(1,0,0,1,0.2400000000000091,-0.09999999999999432)"><svg viewBox="0 0 395.52 247.2" height="247.2" width="395.52"><g><svg></svg></g><g><svg viewBox="0 0 395.52 247.2" height="247.2" width="395.52"><g transform="matrix(1,0,0,1,75.54432000000001,97.99019511059372)"><svg viewBox="0 0 244.43135999999996 51.21960977881256" height="51.21960977881256" width="244.43135999999996"><g><svg viewBox="0 0 244.43135999999996 51.21960977881256" height="51.21960977881256" width="244.43135999999996"><g><svg viewBox="0 0 244.43135999999996 51.21960977881256" height="51.21960977881256" width="244.43135999999996"><g><svg viewBox="0 0 244.43135999999996 51.21960977881256" height="51.21960977881256" width="244.43135999999996"><g id="textblocktransform"><svg viewBox="0 0 244.43135999999996 51.21960977881256" height="51.21960977881256" width="244.43135999999996" id="textblock"><g><svg viewBox="0 0 244.43135999999996 51.21960977881256" height="51.21960977881256" width="244.43135999999996"><g transform="matrix(1,0,0,1,0,0)"><svg width="244.43135999999996" viewBox="2.65 -35.5 171.79 36" height="51.21960977881256" data-palette-color="#6b7280"><path d="M3.9-26.35L3.9-26.35Q3.9-31.2 6.35-33.35 8.8-35.5 14.3-35.5L14.3-35.5Q18.15-35.5 20.5-33.5 22.85-31.5 23.9-27.4L23.9-27.4 19.25-23.9 16.8-23.9 22.2-27.95Q21.15-31.3 19.18-32.65 17.2-34 14.3-34L14.3-34Q12.3-34 10.93-33.75 9.55-33.5 8.18-32.77 6.8-32.05 6.1-30.45 5.4-28.85 5.4-26.35L5.4-26.35Q5.4-24.15 7.43-22.45 9.45-20.75 12.35-19.55 15.25-18.35 18.18-17.1 21.1-15.85 23.13-13.9 25.15-11.95 25.15-9.4L25.15-9.4Q25.15-4.4 22.68-1.95 20.2 0.5 14.2 0.5L14.2 0.5Q9.3 0.5 6.5-1.48 3.7-3.45 2.65-7.6L2.65-7.6 4.05-8.2Q5.05-4.15 7.48-2.58 9.9-1 14.2-1L14.2-1Q19-1 21.33-2.85 23.65-4.7 23.65-9.4L23.65-9.4Q23.65-11.6 21.63-13.3 19.6-15 16.68-16.2 13.75-17.4 10.85-18.65 7.95-19.9 5.93-21.85 3.9-23.8 3.9-26.35ZM34.3 0L32.8 0 32.8-29 34.3-29 34.3 0ZM53.45 0L51.3 0 35.9-15.3 49.7-29 51.85-29 38.05-15.3 53.45 0ZM58.55 0L58.55-29 60.05-29 60.05 0 58.55 0ZM70.54 0L69.04 0 69.04-14.5Q69.04-22.4 71.77-25.95 74.49-29.5 80.69-29.5L80.69-29.5Q87.94-29.5 90.54-24.75L90.54-24.75 80.09-16 90.74-16 90.74-14.5 75.94-14.5 88.59-25.05Q86.39-28 80.69-28L80.69-28Q78.19-28 76.49-27.48 74.79-26.95 73.37-25.53 71.94-24.1 71.24-21.38 70.54-18.65 70.54-14.5L70.54-14.5 70.54 0ZM102.04 0L102.04 0 98.24 0 98.24-29 102.04-29Q109.44-29 113.84-25.1 118.24-21.2 118.24-14.5 118.24-7.8 113.84-3.9 109.44 0 102.04 0ZM99.74-1.5L102.04-1.5Q108.79-1.5 112.77-4.95 116.74-8.4 116.74-14.5 116.74-20.6 112.77-24.05 108.79-27.5 102.04-27.5L102.04-27.5 99.74-27.5 99.74-1.5ZM144.19-3.95L145.29-2.95Q142.54 0.5 136.29 0.5 130.04 0.5 127.34-3.05 124.64-6.6 124.64-14.5 124.64-22.4 127.34-25.95 130.04-29.5 136.29-29.5L136.29-29.5Q143.54-29.5 146.14-24.75L146.14-24.75 133.89-14.5 131.54-14.5 144.19-25.05Q141.99-28 136.29-28L136.29-28Q133.79-28 132.09-27.48 130.39-26.95 128.96-25.53 127.54-24.1 126.84-21.38 126.14-18.65 126.14-14.5 126.14-10.35 126.84-7.63 127.54-4.9 128.96-3.48 130.39-2.05 132.09-1.53 133.79-1 136.29-1L136.29-1Q141.99-1 144.19-3.95L144.19-3.95ZM172.84-29L174.44-29 161.94 0.5 149.44-29 151.04-29 161.94-3.35 172.84-29Z" opacity="1" transform="matrix(1,0,0,1,0,0)" fill="#6b7280" class="wordmark-text-0" data-fill-palette-color="primary" id="text-0"></path></svg></g></svg></g></svg></g></svg></g></svg></g></svg></g></svg></g><g><path d="M0 123.6c0-68.262 55.338-123.6 123.6-123.6 57.32 0 105.527 39.019 119.509 91.944l-2.391 0c-13.922-51.636-61.083-89.635-117.118-89.634-66.987 0-121.29 54.304-121.29 121.29 0 66.987 54.304 121.29 121.29 121.29 56.035 0 103.196-37.999 117.118-89.634l2.391 0c-13.982 52.926-62.189 91.944-119.509 91.944-68.262 0-123.6-55.338-123.6-123.6z" fill="#6b7280" stroke="transparent" data-fill-palette-color="tertiary"></path></g></svg></g><defs></defs></svg><rect width="395.52" height="247.2" fill="none" stroke="none" visibility="hidden"></rect></g></svg></g></svg>